<?xml version="1.0" encoding="utf-8"?>
<!-- Generator: Adobe Illustrator 25.4.6, SVG Export Plug-In . SVG Version: 6.00 Build 0)  -->
<svg version="1.1" xmlns="http://www.w3.org/2000/svg" xmlns:xlink="http://www.w3.org/1999/xlink" x="0px" y="0px"
	 width="595.276px" height="841.89px" viewBox="0 0 595.276 841.89" enable-background="new 0 0 595.276 841.89"
	 xml:space="preserve">
<g id="Layer_3">
</g>
<g id="Layer_2">
	<g id="Layer_4">
	</g>
	<g id="Layer_9">
	</g>
</g>
<g id="Layer_1">
	<g id="Layer_5">
	</g>
</g>
<g id="Layer_6">
</g>
<g id="Layer_7">
</g>
<g id="Layer_8">
	<g>
		<path fill="#F39200" d="M284.452,509.702c72,16,142,21,214,12c12.843-1.835,25.313-2.915,37.866-2.796V342.943
			c0-38.268-31.022-69.29-69.29-69.29H142.64c-38.268,0-69.29,31.022-69.29,69.29v150.458
			C141.604,473.036,213.807,492.924,284.452,509.702z"/>
		<path fill="#E6332A" d="M499.323,520.613c-72,9-141.742-1.839-213.742-17.839c-70.644-16.778-143.975-30.798-212.229-10.433
			l0.869,80.998c0,38.268,24.005,70.21,69.29,69.29h324.387c38.268,0,69.29-31.022,69.29-69.29l-0.869-55.535
			C523.766,517.685,512.166,518.778,499.323,520.613z"/>
		
			<line fill="none" stroke="#683C11" stroke-width="9" stroke-miterlimit="10" x1="351.246" y1="152.78" x2="437.389" y2="321.603"/>
		<g>
			<path fill="#BE1622" d="M259.008,395.356c-13.817,15.615-28.997,4.591-55.551-3.978c-30.592-9.871-83.213-53.958-111.823-44.146
				c-35.613,12.214-37.935,31.673-37.935,31.673l26.839-26.6c0,0,36.539-21.91,71.097-25.25
				c35.155-3.397,34.763,29.954,73.435,28.24C268.81,353.357,259.008,395.356,259.008,395.356z"/>
			<path fill="#86252B" d="M128.229,352.836c0,0-30.917-22.593-69.627,10.785c-22.431,19.341-17.453,32.251-17.453,32.251
				c8.937-14.224,21.617-23.472,36.034-30.597C91.793,358.054,109.182,350.712,128.229,352.836z"/>
		</g>
		<g>
			<g>
				<path fill="#FFCB01" d="M243.429,442.972c-0.089,0.565-0.172,1.13-0.254,1.695c13.119,4.87,24.564,13.68,36.779,20.389
					c15.733,8.64,32.244,16.258,48.597,23.642c14.081,6.357-2.996-15.686,11.871-12c-3.304-17.767,15.611-31.58,11.47-47.89
					c1.493-7.07,37.309-3.882,36.008-18.481c-1.766-19.807-30.781-37.464-37.636-37.692c-19.177-0.638-78.046-20.994-121.798,19.723
					c-7.486,4.053-9.232,34.731-8.555,37.174C221.529,435.369,244.35,437.108,243.429,442.972z"/>
			</g>
			<path fill="#FFCB01" d="M313.995,441.764c-10.747-4.643-23.093-7.899-37.456-9.107c-25.051-2.106-43.689,1.973-58.956,2.549
				c8.707,3.192,16.41,5.411,20.322,5.893c1.969,3.33,4.842,12.501,7.4,12.177c-5.303,10.504-12.314,26.969-18.945,41.597
				c12.659,2.703,25.316,5.686,37.942,8.708c10.152-13.578,20.011-27.475,30.94-40.426
				C301.35,455.915,307.803,448.944,313.995,441.764z"/>
			<path fill="#FFCB01" d="M216.516,515.294c-7.278,13.565-14.559,27.078-22.117,40.463c12.262,4.308,26.022-2.834,35.305-10.616
				c5.762-4.83,10.474-10.434,15.145-16.297c5.802-7.283,11.472-14.668,17.082-22.099c0.793-1.051,1.58-2.109,2.369-3.164
				c-12.625-3.022-25.283-6.005-37.942-8.708C222.872,502.565,219.49,509.751,216.516,515.294z"/>
			<path fill="#FFCB01" d="M173.202,413.321C173.315,415.95,173.993,418.414,173.202,413.321L173.202,413.321z"/>
			<path fill="#FFCB01" d="M176.525,412.262c-0.817-1.179-1.442-1.824-1.92-2.093c12.944,21.902,25.835,25.684,42.977,25.037
				C201.478,429.302,181.931,420.06,176.525,412.262z"/>
			<path fill="#FFCB01" d="M173.202,413.321c-0.082-1.895,0.133-3.867,1.402-3.152c-0.937-1.585-1.873-3.253-2.812-5.032
				C172.49,408.953,172.932,411.577,173.202,413.321z"/>
			<g>
				<path fill="#FFCB01" d="M373.343,441.099c1.411,5.556-13.978,20.339-16.129,25.57c-23.585-13.096-57.883-42.21-84.309-46.65
					c-14.776-2.482-29.693-4.204-44.633-5.329c-2.504-0.189-7.977,0.417-10.483,0.26c1.193-9.234,6.677-23.411,8.573-25.257
					c26.693-26.943,111.385-13.197,130.562-12.559c6.855,0.228,29.208,13.383,30.973,33.19
					C389.2,424.925,374.836,434.03,373.343,441.099z"/>
			</g>
			<path fill="none" stroke="#EC8C2B" stroke-width="2" stroke-linecap="round" stroke-linejoin="round" stroke-miterlimit="10" d="
				M250.306,378.706c0,0-8.304-1.096-12.973,2.496c-5.842,4.495-10.97,8.492-10.97,8.492"/>
			<path fill="#FFCB01" d="M216.445,515.294c-7.832,14.597-15.668,29.134-23.849,43.517c5.728,0.669,11.536,0.263,17.096-1.435
				c13.296-4.061,23.958-13.781,32.695-24.263c7.738-9.284,14.193-19.455,20.062-29.975c-12.033-2.875-24.093-5.704-36.155-8.279
				C222.804,502.557,219.42,509.747,216.445,515.294z"/>
			<path fill="#FFCB01" d="M294.534,444.939c1.802-2.726,3.662-5.412,5.549-8.078c-7.216-2.034-15.057-3.483-23.616-4.203
				c-55.215-4.642-20.769,7.647-31.235,20.618c-5.301,10.501-12.309,26.958-18.939,41.583c12.062,2.574,24.122,5.403,36.155,8.279
				c2.271-4.071,4.457-8.192,6.591-12.337C277.055,475.232,284.859,459.57,294.534,444.939z"/>
			<g>
				<path fill="#FFCB01" d="M259.235,428.807c-4.141,16.31,14.774,30.123,11.47,47.89c14.867-3.686-2.21,18.358,11.871,12
					c16.353-7.383,32.864-15.001,48.597-23.642c12.216-6.709,23.661-15.519,36.779-20.389c-0.082-0.565-0.166-1.13-0.254-1.695
					c-0.921-5.864,21.9-7.603,23.519-13.442c0.677-2.444-1.069-33.121-8.555-37.174c-43.752-40.717-102.621-20.36-121.798-19.723
					c-6.855,0.228-35.87,17.885-37.636,37.692C221.926,424.925,257.742,421.738,259.235,428.807z"/>
			</g>
			<path fill="#FFCB01" d="M330.882,412.607c0,0,41.848-16.413,49.123-22.629c5.739-5.202,9.497-5.106,12.067-7.586
				c1.264-17.254,66.028-29.851,57.652,0.158c-11.317,40.544-107.799,55.336-107.799,55.336L330.882,412.607z"/>
			<path fill="#FFFFFF" d="M365.823,453.276c2.558,0.324,5.43-8.847,7.4-12.177c11.148-1.372,51.005-18.537,61.379-28.837
				c10.77-10.694,24.592-20.848,26.146-47.353c-25.468,48.285-91.739,69.87-140.298,72.976
				c-29.984,1.918-60.717,29.824-84.953,58.983c16.647,3.715,33.28,7.815,49.827,11.744c5.493,1.221,10.974,2.369,16.445,3.461
				c1.684-2.499,2.995-4.443,3.76-5.578c0.928,1.377,2.658,3.944,4.887,7.251c29.873,5.59,59.48,9.207,89.109,10.627
				c-1.875-3.449-3.56-6.556-4.914-9.08C385.983,499.21,373.914,469.305,365.823,453.276z"/>
			<path fill="#FFFFFF" d="M343.95,563.341c6.018,8.352,15.337,13.452,25.529,14.428c2.598,0.25,5.228,0.271,7.85,0.267
				c0.938,0,1.874-0.004,2.808-0.003c0.49,0.001,0.979,0.003,1.466,0.009c6.799,0.068,13.593,0.159,20.397,0.237
				c3.916,0.04,7.839,0.147,11.753,0.12c3.613-0.025,11.193-0.177,11.198-5.283c0.017-2.167-15.428-30.352-25.427-48.743
				c-29.63-1.419-59.236-5.037-89.109-10.627C320.903,529.304,342.479,561.292,343.95,563.341z"/>
			<path fill="#FFFFFF" d="M235.496,496.869c-23.711,28.529-41.202,58.258-45.669,66.028c-0.437,0.755-0.882,1.516-1.29,2.28
				c-1.196,2.236-2.891,5.367-2.871,7.94c0.006,5.107,7.585,5.258,11.198,5.283c0.136,0.001,0.273-0.001,0.41,0
				c0.009,0,0.019,0,0.028,0c3.913,0.026,7.836-0.081,11.752-0.12c6.804-0.078,13.598-0.169,20.397-0.237
				c0.481-0.006,0.963-0.008,1.446-0.009c0.951,0,1.904,0.003,2.859,0.003c2.612,0.003,5.232-0.019,7.82-0.267
				c10.192-0.977,19.511-6.077,25.529-14.428c1.527-2.126,24.688-36.47,34.663-51.268c-5.472-1.091-10.952-2.24-16.445-3.461
				C268.776,504.683,252.143,500.583,235.496,496.869z"/>
			<g>
				<path fill="#FFCB01" d="M237.783,441.099c-1.411,5.556,13.978,20.339,16.129,25.57c23.585-13.096,57.883-42.21,84.309-46.65
					c14.776-2.482,29.693-4.204,44.633-5.329c2.504-0.189,7.977,0.417,10.483,0.26c-1.193-9.234-6.677-23.411-8.573-25.257
					c-5.777-5.831-15.01-13.026-23.943-10.988c-36.298,8.28-91.593-2.071-106.619-1.571c-6.855,0.228-29.208,13.383-30.973,33.19
					C221.926,424.925,236.29,434.03,237.783,441.099z"/>
			</g>
			<path fill="#FFFFFF" d="M284.943,362.963c-0.561-1.31-1.31-2.531-2.326-3.534c-2.188-2.156-5.865-2.138-8.29-0.341
				c-0.744,0.542-1.444,1.456-2.076,2.726c-0.627,1.248-1.044,2.763-1.178,4.151c-0.254,2.515,0.354,5.084,1.011,7.485
				c0.505,1.872,1.283,4.158,3.128,5.143c1.608,0.855,3.612,0.588,5.323,0.236c1.729-0.359,3.522-0.874,4.771-2.194
				c1.035-1.084,1.546-2.605,1.648-4.08C287.164,369.293,286.22,365.929,284.943,362.963z"/>
			<path fill="#FFFFFF" d="M322.391,372.555c0.102,1.475,0.613,2.996,1.648,4.08c1.249,1.32,3.042,1.834,4.771,2.194
				c1.711,0.353,3.715,0.619,5.323-0.236c1.846-0.985,2.624-3.272,3.128-5.143c0.657-2.401,1.264-4.969,1.011-7.485
				c-0.134-1.388-0.551-2.903-1.178-4.151c-0.632-1.27-1.331-2.184-2.076-2.726c-2.426-1.797-6.102-1.816-8.29,0.341
				c-1.016,1.003-1.766,2.224-2.326,3.534C323.125,365.929,322.181,369.293,322.391,372.555z"/>
			<path fill="#FFCB01" d="M362.155,384.042c-6.596-16.898-10.943-43.502-12.889-47.008c-4.08-10.711-9.585-15.401-18.313-17.215
				c-4.416-0.937-9.85-0.483-14.34-0.483c-2.813-0.008-8.279-0.005-11.076-0.002c-2.797-0.003-8.263-0.006-11.076,0.002
				c-4.489,0-9.923-0.454-14.34,0.483c-8.728,1.813-14.233,6.504-18.313,17.215c-1.975,3.558-6.421,30.892-13.18,47.742"/>
			<path fill="#231F20" d="M328.928,352.558c0.95-0.389,1.768-0.756,1.952-0.842c0.89-0.417,1.738-0.933,2.561-1.47
				c2.234-1.443,3.457-2.96,4.33-4.085c0.662-0.843,1.114-1.704,1.227-2.2c-5.867,1.558-10.259,2.597-13.217,3.079
				c-0.817,0.065-0.892,2.26-0.275,6.468C325.552,353.837,327.408,353.166,328.928,352.558z"/>
			<path fill="#231F20" d="M339.666,365.688c-0.158-1.542-0.613-3.226-1.308-4.613c-0.702-1.412-1.481-2.427-2.317-3.029
				c-2.689-1.997-6.771-2.018-9.208,0.379c-1.133,1.115-1.959,2.472-2.583,3.927c-1.414,3.295-2.478,7.033-2.237,10.658
				c0.114,1.639,0.689,3.329,1.831,4.534c1.39,1.466,3.38,2.038,5.305,2.437c1.904,0.392,4.124,0.688,5.911-0.262
				c2.052-1.095,2.919-3.635,3.481-5.715C339.267,371.336,339.941,368.482,339.666,365.688z M329.8,368.92
				c-0.2-1.311-1.48-1.91-3.831-1.707c0.43,0,0.957-0.169,1.473-0.321l1.277-0.406c0.365-0.155,0.678-0.517,1.04-1.032
				c0.558-0.841,0.84-2.445,0.961-4.961l0.399,3.921c0.196,1.876,1.315,2.754,3.474,2.596c-0.437,0.034-1.435,0.32-2.957,0.833
				c-0.719,0.293-1.119,1.88-1.156,4.792C330.316,372.035,330.123,370.806,329.8,368.92z M334.87,375.791
				c-0.479,0.158-0.716,1.112-0.716,2.915c-0.086-0.317-0.247-1.115-0.402-2.272c-0.159-0.806-0.957-1.164-2.399-1.043
				c0.282,0,0.602-0.12,0.926-0.196l0.757-0.235c0.238-0.123,0.471-0.364,0.675-0.647c0.323-0.52,0.482-1.518,0.557-3.074
				l0.241,2.426c0.12,1.129,0.833,1.694,2.158,1.604C336.381,375.271,335.79,375.477,334.87,375.791z"/>
			<path fill="#231F20" d="M284.474,354.032c0.501-4.223,0.36-6.416-0.451-6.457c-2.967-0.399-7.389-1.317-13.3-2.713
				c0.126,0.492,0.605,1.341,1.288,2.165c0.904,1.1,2.163,2.582,4.442,3.964c0.839,0.515,1.705,1.008,2.6,1.399
				c0.187,0.082,1.017,0.427,1.972,0.787C282.564,353.744,284.432,354.361,284.474,354.032z"/>
			<path fill="#231F20" d="M285.604,362.351c-0.623-1.456-1.456-2.812-2.585-3.927c-2.431-2.396-6.517-2.375-9.212-0.379
				c-0.827,0.602-1.605,1.618-2.306,3.029c-0.696,1.387-1.16,3.07-1.309,4.613c-0.282,2.795,0.393,5.649,1.123,8.316
				c0.561,2.08,1.425,4.62,3.476,5.715c1.787,0.95,4.014,0.654,5.914,0.262c1.921-0.399,3.914-0.971,5.301-2.437
				c1.15-1.205,1.718-2.895,1.831-4.534C288.072,369.384,287.022,365.646,285.604,362.351z M276.099,376.434
				c-0.165,1.157-0.317,1.956-0.399,2.272c0-1.804-0.244-2.757-0.723-2.915c-0.912-0.313-1.507-0.52-1.797-0.52
				c1.322,0.09,2.038-0.475,2.155-1.604l0.247-2.426c0.076,1.556,0.235,2.554,0.561,3.074c0.203,0.282,0.433,0.523,0.674,0.647
				l0.761,0.235c0.32,0.076,0.637,0.196,0.915,0.196C277.063,375.271,276.261,375.629,276.099,376.434z M280.058,368.92
				c-0.324,1.887-0.53,3.116-0.681,3.714c-0.041-2.912-0.444-4.499-1.16-4.792c-1.518-0.512-2.517-0.798-2.957-0.833
				c2.162,0.158,3.277-0.72,3.477-2.596l0.399-3.921c0.116,2.516,0.393,4.12,0.964,4.961c0.358,0.516,0.674,0.877,1.032,1.032
				l1.281,0.406c0.516,0.152,1.033,0.321,1.476,0.321C281.531,367.009,280.258,367.608,280.058,368.92z"/>
			<path fill="#FFFFFF" d="M276.099,376.434c-0.165,1.157-0.317,1.956-0.399,2.272c0-1.804-0.244-2.757-0.723-2.915
				c-0.912-0.313-1.507-0.52-1.797-0.52c1.322,0.09,2.038-0.475,2.155-1.604l0.247-2.426c0.076,1.556,0.235,2.554,0.561,3.074
				c0.203,0.282,0.433,0.523,0.674,0.647l0.761,0.235c0.32,0.076,0.637,0.196,0.915,0.196
				C277.063,375.271,276.261,375.629,276.099,376.434z"/>
			<path fill="#FFFFFF" d="M280.058,368.92c-0.324,1.887-0.53,3.116-0.681,3.714c-0.041-2.912-0.444-4.499-1.16-4.792
				c-1.518-0.512-2.517-0.798-2.957-0.833c2.162,0.158,3.277-0.72,3.477-2.596l0.399-3.921c0.116,2.516,0.393,4.12,0.964,4.961
				c0.358,0.516,0.674,0.877,1.032,1.032l1.281,0.406c0.516,0.152,1.033,0.321,1.476,0.321
				C281.531,367.009,280.258,367.608,280.058,368.92z"/>
			<path fill="#FFFFFF" d="M329.8,368.92c-0.2-1.311-1.48-1.91-3.831-1.707c0.43,0,0.957-0.169,1.473-0.321l1.277-0.406
				c0.365-0.155,0.678-0.517,1.04-1.032c0.558-0.841,0.84-2.445,0.961-4.961l0.399,3.921c0.196,1.876,1.315,2.754,3.474,2.596
				c-0.437,0.034-1.435,0.32-2.957,0.833c-0.719,0.293-1.119,1.88-1.156,4.792C330.316,372.035,330.123,370.806,329.8,368.92z"/>
			<path fill="#FFFFFF" d="M334.87,375.791c-0.479,0.158-0.716,1.112-0.716,2.915c-0.086-0.317-0.247-1.115-0.402-2.272
				c-0.159-0.806-0.957-1.164-2.399-1.043c0.282,0,0.602-0.12,0.926-0.196l0.757-0.235c0.238-0.123,0.471-0.364,0.675-0.647
				c0.323-0.52,0.482-1.518,0.557-3.074l0.241,2.426c0.12,1.129,0.833,1.694,2.158,1.604
				C336.381,375.271,335.79,375.477,334.87,375.791z"/>
			<path fill="#231F20" d="M295.798,382.949c-0.078,0.101-0.123,0.214-0.121,0.354c0.003,0.149,0.069,0.307,0.203,0.401
				c0.333,0.286,0.683,0.578,1.087,0.81c2.077,1.395,4.613,2.093,7.558,2.084c2.995-0.106,5.363-0.855,7.492-2.375
				c0.371-0.239,0.758-0.518,1.111-0.852c0.263-0.23,0.379-0.575,0.184-0.795c-0.204-0.22-0.549-0.268-0.912-0.002
				c-0.314,0.272-0.653,0.76-0.977,0.766c-0.016,0-0.023,0-0.023,0c-1.945,1.742-4.136,2.078-6.897,2.171
				c-2.705,0.012-5.056-0.627-6.951-1.896c0-0.008-0.012-0.008-0.012-0.008c-0.348-0.225-0.653-0.468-0.976-0.729
				C296.337,382.688,295.993,382.71,295.798,382.949z M296.98,384.53c-0.008,0-0.013-0.016-0.013-0.016s-0.012,0-0.019,0
				C296.955,384.513,296.967,384.513,296.98,384.53z M312.017,384.223l-0.007,0.017c0.007-0.017,0.016-0.017,0.016-0.017
				L312.017,384.223z"/>
			<path fill="#020203" d="M324.076,378.022c-0.025-0.031-0.045-0.127-0.059-0.155c0,0,0.041,0.103,0.07,0.162
				C324.086,378.022,324.076,378.022,324.076,378.022z"/>
			
				<path fill="#FFCB01" stroke="#EC8C2B" stroke-width="2" stroke-linecap="round" stroke-linejoin="round" stroke-miterlimit="10" d="
				M235.444,422.279c0,0,9.64,9.859,11.406,16.363c1.766,6.505,31.423,4.391,39.543,2.457"/>
			<path fill="none" stroke="#DCDADA" stroke-width="2" stroke-linecap="round" stroke-linejoin="round" stroke-miterlimit="10" d="
				M431.937,407.347c0,0-0.504,5.664-4.261,7.95c-3.1,1.887-7.2,2.602-7.2,2.602"/>
			
				<path fill="#FFCB01" stroke="#EC8C2B" stroke-width="2" stroke-linecap="round" stroke-linejoin="round" stroke-miterlimit="10" d="
				M420.476,380.551c0,0-3.864,20.879-28.276,13.12"/>
			<path fill="none" stroke="#DCDADA" stroke-width="2" stroke-linecap="round" stroke-linejoin="round" stroke-miterlimit="10" d="
				M374.404,422.279c0,0-9.64,9.859-11.406,16.363c-1.766,6.505-31.423,4.391-39.543,2.457"/>
			<path fill="none" stroke="#EC8C2B" stroke-width="2" stroke-linecap="round" stroke-linejoin="round" stroke-miterlimit="10" d="
				M374.404,422.279c0,0-3.416,3.493-6.553,7.693"/>
			
				<path fill="#FFCB01" stroke="#EC8C2B" stroke-width="2" stroke-linecap="round" stroke-linejoin="round" stroke-miterlimit="10" d="
				M239.126,402.351c0,0,36.016-4.07,63.517,6.353"/>
			
				<line fill="#FFCB01" stroke="#EC8C2B" stroke-width="2" stroke-linecap="round" stroke-linejoin="round" stroke-miterlimit="10" x1="305.228" y1="437.885" x2="305.228" y2="411.225"/>
			
				<path fill="#FFCB01" stroke="#EC8C2B" stroke-width="2" stroke-linecap="round" stroke-linejoin="round" stroke-miterlimit="10" d="
				M410.141,366.563c0,0-22.158-4.302-38.895,12.601"/>
			
				<path fill="#FFCB01" stroke="#EC8C2B" stroke-width="2" stroke-linecap="round" stroke-linejoin="round" stroke-miterlimit="10" d="
				M307.959,408.704c27.501-10.423,63.517-6.353,63.517-6.353"/>
			<path fill="none" stroke="#EC8C2B" stroke-width="2" stroke-linecap="round" stroke-linejoin="round" stroke-miterlimit="10" d="
				M360.82,378.128c0,0,8.304-1.096,12.973,2.496c5.841,4.495,8.36,7.027,8.36,7.027"/>
			
				<path fill="#FFFFFF" stroke="#DCDADA" stroke-width="2" stroke-linecap="round" stroke-linejoin="round" stroke-miterlimit="10" d="
				M376.818,432.658c0,0-8.015,24.085-16.289,30.625"/>
			
				<path fill="#FFCB01" stroke="#EC8C2B" stroke-width="2" stroke-linecap="round" stroke-linejoin="round" stroke-miterlimit="10" d="
				M233.735,432.658c0,0,8.015,24.085,16.289,30.625"/>
			<g>
				
					<path fill="#FFCB01" stroke="#EC8C2B" stroke-width="2" stroke-linecap="round" stroke-linejoin="round" stroke-miterlimit="10" d="
					M193.752,381.188c0,0,20.032-10.401,40.871,1.07"/>
				
					<path fill="#FFCB01" stroke="#EC8C2B" stroke-width="2" stroke-linecap="round" stroke-linejoin="round" stroke-miterlimit="10" d="
					M244.329,378.311c0,0-8.275,1.3-11.735,6.068c-4.329,5.965-6.027,9.107-6.027,9.107"/>
				<path fill="#FFCB01" d="M193.362,382.404c0,0,3.403-2.264,11.17-3.298s21.44,1.029,25.438,2.393
					c3.998,1.364,3.119,1.212,3.119,1.212s-5.183,5.552-6.973,11.596c-1.789,6.045-23.448,27.239-23.448,27.239l-24.524-17.442
					l7.385-14.174L193.362,382.404z"/>
			</g>
			<path fill="none" stroke="#DCDADA" stroke-width="2" stroke-linecap="round" stroke-linejoin="round" stroke-miterlimit="10" d="
				M337.205,485.579c0,0-2-28.619-22.297-31.564c-2.03-0.295-5.64-0.447-9.303-0.456c-3.914-0.01-7.889,0.142-10.058,0.456
				c-20.298,2.945-22.297,31.564-22.297,31.564"/>
			<path fill="none" stroke="#DCDADA" stroke-width="2" stroke-linecap="round" stroke-linejoin="round" stroke-miterlimit="10" d="
				M304.738,453.785c0,0,1.108,8.207,0,11.724c-1.108,3.517-15.411,4.221-18.225,1.876"/>
			<path fill="none" stroke="#DCDADA" stroke-width="2" stroke-linecap="round" stroke-linejoin="round" stroke-miterlimit="10" d="
				M304.127,466.508c0,0,2.128,8.813,0.45,11.815c-1.677,3.002-15.614,4.074-17.115,0"/>
			<path fill="none" stroke="#DCDADA" stroke-width="2" stroke-linecap="round" stroke-linejoin="round" stroke-miterlimit="10" d="
				M304.651,479.731c0,0,1.789,11.303-1.377,11.831c-3.166,0.528-12.136,1.759-13.191-2.462"/>
			<path fill="none" stroke="#DCDADA" stroke-width="2" stroke-linecap="round" stroke-linejoin="round" stroke-miterlimit="10" d="
				M305.501,453.785c0,0-1.108,8.207,0,11.724c1.108,3.517,15.411,4.221,18.225,1.876"/>
			<path fill="none" stroke="#DCDADA" stroke-width="2" stroke-linecap="round" stroke-linejoin="round" stroke-miterlimit="10" d="
				M306.112,466.508c0,0-2.128,8.813-0.45,11.815c1.677,3.002,15.614,4.074,17.115,0"/>
			<path fill="none" stroke="#DCDADA" stroke-width="2" stroke-linecap="round" stroke-linejoin="round" stroke-miterlimit="10" d="
				M305.589,479.731c0,0-1.789,11.303,1.377,11.831c3.166,0.528,12.136,1.759,13.191-2.462"/>
			<g>
				<path fill="#FFCB01" d="M381.171,372.891c20.813-11.291,29.208-5.684,32.087-2.575c1.193,1.289,1.199,0.924,4.645,3.672
					c3.303,2.633,2.714,3.878,2.714,3.878s-3.506,6.261-7.23,11.348s-29.419-0.239-29.419-0.239l-11.149-10.269
					C375.489,375.459,377.829,375.198,381.171,372.891z"/>
			</g>
		</g>
		<path fill="#FFCB01" d="M410.699,368.357c1.03-10.362,6.694-21.616,11.479-37.737s8.605-10.128,12.218-12.726
			c1.014-0.729,7.003-2.557,10.965-2.196c3.962,0.361,7.446,1.155,17.046,6.894c4.857,2.903,5.523,9.165,3.384,27.832
			c-2.476,21.605-7.334,33.35-16.88,47.435"/>
		<path fill="#683C11" d="M421.811,301.198l-1-3c4.913-2.402,10.842,2.491,13.444,7.301c14.267,26.37,51.724,96.42,53.262,100.305
			l-9.328,4.071"/>
		<polygon fill="#FFFFFF" points="438.607,327.195 439.079,330.688 435.736,331.52 438.931,332.881 437.996,336.261 
			440.719,334.128 443.126,336.676 442.654,333.182 445.996,332.35 442.801,330.989 443.737,327.61 441.014,329.742 		"/>
		<g>
			<path fill="#FFCB01" d="M463.792,330.842c-2.201,4.038-4.978,7.661-9.788,8.795c-3.284,0.774-10.816-4.07-12.827-4.9
				c-7.687-3.171,3.122-15.354,4.234-17.768"/>
			<g>
				<path fill="#EC8C2B" d="M462.82,330.274c-1.939,3.525-4.806,7.595-9.116,8.278c-1.334,0.212-2.772-0.363-3.992-0.839
					c-1.62-0.632-3.172-1.443-4.707-2.257c-1.116-0.593-2.219-1.203-3.365-1.735c-1.048-0.486-1.863-1.156-2.046-2.353
					c-0.381-2.492,1.29-5.248,2.506-7.286c0.82-1.374,1.722-2.697,2.633-4.012c0.567-0.818,1.216-1.632,1.649-2.533
					c0.624-1.299-1.316-2.442-1.943-1.136c-0.432,0.901-1.082,1.714-1.649,2.533c-0.889,1.283-1.768,2.573-2.573,3.912
					c-1.552,2.583-3.324,5.82-2.821,8.947c0.492,3.057,3.418,3.969,5.812,5.253c1.724,0.924,3.46,1.827,5.268,2.578
					c1.546,0.643,3.295,1.317,5.003,1.213c2.367-0.144,4.748-1.558,6.498-3.071c2.019-1.746,3.509-4.036,4.785-6.357
					C465.461,330.14,463.519,329.003,462.82,330.274L462.82,330.274z"/>
			</g>
		</g>
		<g>
			<path fill="#FFCB01" d="M426.195,326.839c4.956-2.698,21.16-6.579,21.552,1.423c0.259,5.272-3.007,5.032-8.618,7.214
				c-0.534,0.206,0.252,9.439-3.924,14.614"/>
			<g>
				<path fill="#EC8C2B" d="M426.763,327.811c2.684-1.439,5.799-2.23,8.779-2.759c2.867-0.51,6.655-1.024,9.331,0.465
					c2.293,1.275,2.521,5.171,0.199,6.54c-1.645,0.97-3.637,1.375-5.418,2.026c-0.746,0.272-1.419,0.426-1.693,1.229
					c-0.147,0.431-0.143,0.938-0.178,1.39c-0.334,4.285-0.609,9.066-3.373,12.593c-0.883,1.127,0.698,2.73,1.591,1.591
					c2.875-3.67,3.616-8.362,3.943-12.892c0.044-0.61,0.128-1.235,0.137-1.847c0.003-0.204,0.093,0.005,0.016-0.101
					c0.005-0.025,0.011-0.049,0.016-0.074c0.081-0.265-0.036-0.111-0.351,0.461c0.027,0.043,1.974-0.699,2.174-0.766
					c1.754-0.586,3.715-1.072,5.154-2.296c2.565-2.18,2.429-7.012-0.131-9.14c-2.628-2.186-6.679-2.055-9.867-1.668
					c-3.894,0.473-7.984,1.439-11.465,3.305C424.351,326.552,425.486,328.496,426.763,327.811L426.763,327.811z"/>
			</g>
		</g>
		
			<line fill="none" stroke="#432918" stroke-width="12" stroke-miterlimit="10" x1="480.774" y1="403.279" x2="513.655" y2="466.606"/>
		
			<line fill="none" stroke="#432918" stroke-width="12" stroke-miterlimit="10" x1="352.49" y1="156.534" x2="365.37" y2="179.862"/>
		<polygon fill="#432918" points="350.759,164.843 361.127,160.732 363.575,143.236 318.206,77.33 334.035,155.458 		"/>
		<path fill="#BB452F" d="M329.651,543.45c9.347,0.615,43.168-3.256,75.52-8.697c-0.897-1.873-2.816-5.722-5.146-10.358
			c-30.428-1.432-60.83-5.183-91.52-11.01C315.583,523.61,328.146,541.355,329.651,543.45z"/>
		<path fill="#BB452F" d="M282.226,542.516c1.558-2.169,15.748-23.416,22.452-33.161c-5.791-1.147-14.314-1.805-20.129-3.097
			c-15.553-3.694-31.581-7.047-47.226-10.581c-0.052,0.025-0.226,1.911-0.278,1.935c-33.891,16.249-22.151-0.424-25.915,12
			c-4.129,25.806-9.269,31.365-9.677,32.129"/>
		<path fill="#BB452F" d="M297.618,495.584c-16.763,1.072-45.631-4.361-59.122,1.958c15.645,3.533,31.274,7.377,46.826,11.07
			c5.815,1.292,11.616,2.505,17.407,3.652c0.975-1.417,1.826-2.663,2.498-3.661c0.831,1.233,1.959,2.877,3.277,4.781
			c30.69,5.827,61.092,9.578,91.52,11.01c-5.326-10.599-12.808-25.332-15.206-30.122
			C363.329,493.472,328.019,493.639,297.618,495.584z"/>
		<g>
			<g>
				<path fill="#432918" d="M474.527,403.327c2.959-1.247,5.918-2.493,8.877-3.74c0.72-0.303,1.32-1.005,1.048-1.845
					c-0.224-0.691-1.071-1.374-1.845-1.048c-2.959,1.247-5.918,2.493-8.877,3.74c-0.72,0.303-1.32,1.005-1.048,1.845
					C472.905,402.971,473.753,403.654,474.527,403.327L474.527,403.327z"/>
			</g>
		</g>
		<g>
			<g>
				<path fill="#432918" d="M472.648,398.734c1.577-0.678,3.153-1.358,4.728-2.04c1.403-0.608,3.174-1.111,4.18-2.338
					c0.497-0.606,0.637-1.536,0-2.121c-0.55-0.505-1.59-0.648-2.121,0c-0.116,0.142-0.239,0.272-0.378,0.392
					c0.223-0.193-0.203,0.123-0.259,0.155c-0.281,0.162-0.577,0.296-0.873,0.427c-0.737,0.325-1.478,0.642-2.218,0.962
					c-1.524,0.66-3.048,1.317-4.573,1.973c-0.724,0.311-0.94,1.429-0.538,2.052C471.081,398.948,471.874,399.067,472.648,398.734
					L472.648,398.734z"/>
			</g>
		</g>
		<g>
			<g>
				<path fill="#432918" d="M470.322,394.03c-0.003,0.002,0.292-0.25,0.14-0.125c-0.152,0.125,0.12-0.086,0.152-0.107
					c0.172-0.119,0.35-0.229,0.532-0.332c0.164-0.093,0.332-0.179,0.502-0.261c0.095-0.046,0.191-0.089,0.287-0.132
					c-0.194,0.088-0.074,0.03,0.052-0.02c0.781-0.309,1.588-0.542,2.391-0.787c1.753-0.536,3.471-1.171,4.84-2.433
					c0.579-0.533,0.58-1.589,0-2.121c-0.619-0.568-1.504-0.569-2.121,0c-0.077,0.071-0.163,0.137-0.237,0.21
					c-0.122,0.121,0.186-0.122-0.043,0.036c-0.172,0.119-0.343,0.235-0.523,0.341c-0.162,0.096-0.328,0.184-0.496,0.268
					c-0.094,0.047-0.19,0.089-0.284,0.136c-0.256,0.126,0.118-0.041-0.049,0.024c-0.781,0.306-1.58,0.553-2.382,0.797
					c-1.762,0.536-3.477,1.155-4.883,2.385c-0.593,0.518-0.57,1.598,0,2.121C468.833,394.61,469.69,394.583,470.322,394.03
					L470.322,394.03z"/>
			</g>
		</g>
		<path fill="#FFFFFF" d="M440.829,390.989c4.694-3.774,13.145-7.194,19.048-14.161c-1.597,8.613-15.387,29.468-22.742,31.79
			C429.587,408.618,436.136,394.763,440.829,390.989z"/>
		<path fill="#603C1B" d="M386.122,496.11l0.002,0.003C386.312,496.099,386.301,496.099,386.122,496.11z"/>
		<path fill="#603C1B" d="M303.667,500.01c29.084-0.269,79.514-3.712,82.454-3.899l-3.677-6.526c0,0-39.458,3.186-52.07,3.828
			s-27.719,0.079-40.28-0.112l-41.395-2.523l-0.234,7.56C248.467,498.337,288.608,500.149,303.667,500.01z"/>
		<g>
			<g>
				<path fill="#683C11" d="M248.728,380.11c6.163,8.393,12.683,16.546,19.416,24.486c4.409,5.199,8.937,10.307,13.7,15.186
					c4.074,4.173,8.322,8.252,13.045,11.692c2.875,2.094,6.623,4.653,10.372,4.342c4.421-0.366,8.661-2.798,12.338-5.105
					c10.9-6.839,20.527-15.988,29.29-25.343c4.055-4.329,7.96-8.824,11.479-13.602c2.109-2.863,4.658-6.169,5.482-9.71
					c0.127-0.546,0.228-1.136,0.159-1.697c-0.231-1.892-3.234-1.915-3,0c0.025,0.208,0.014,0.408,0.008,0.616
					c-0.008,0.341,0.075-0.338-0.004,0.016c-0.034,0.151-0.064,0.302-0.103,0.453c-0.076,0.289-0.173,0.571-0.275,0.852
					c-0.186,0.51-0.075,0.233-0.302,0.711c-0.794,1.676-1.78,3.256-2.818,4.79c-2.98,4.404-6.435,8.489-9.985,12.439
					c-8.431,9.384-17.714,18.386-28.069,25.638c-3.761,2.634-7.844,5.312-12.267,6.541c-0.42,0.117-0.845,0.219-1.273,0.3
					c-0.554,0.105-0.408,0.11-0.945,0.122c-0.303,0.007-0.601-0.001-0.903-0.031c0.376,0.038-0.096-0.016-0.2-0.038
					c-0.209-0.045-0.418-0.09-0.625-0.145c-1.674-0.448-3.136-1.271-4.734-2.292c-4.423-2.823-8.318-6.484-12.044-10.152
					c-4.672-4.599-9.087-9.458-13.382-14.41c-7.143-8.237-13.991-16.748-20.518-25.482c-0.42-0.563-0.839-1.127-1.255-1.693
					C250.188,377.056,247.583,378.55,248.728,380.11L248.728,380.11z"/>
			</g>
		</g>
		<path fill="#CA9E67" d="M304.46,435.609c0,0,3.831-1.443,4.694-0.099c0.863,1.343,0.423,0.397,0.84,5.887
			c0.201,2.645-0.874,5.062-5.078,8.621c-4.204,3.559-7.225,2.973-7.225,2.973s2.683-2.878,3.391-5.014s0.023-5.502,0.175-7.647
			C301.689,434.228,304.46,435.609,304.46,435.609z"/>
		<path fill="#572C11" d="M259.984,342.847c0,0,0.935-21.46,15.276-24.565c14.316-3.1,59.159-2.504,64.458,1.027
			c10.599,7.063,11.356,23.454,12.565,28.667c-1.179-1.738-15.615-20.782-15.615-20.782l-6.387,6.482L327.774,327l-8.129,6.789
			l-6.235-6.982L306.278,333l-9.545-7.655v8.331l-14.443-7.45l-11.276,7.45l-2.078-5.145L259.984,342.847z"/>
		<path fill="#572C11" d="M255.677,360.774c0,0,10.371,19.173,17.082,21.811c10.615,4.172,18.091-4.115,30.233-4.67
			c16.362-0.748,19.999,8.951,27.384,6.909c10.599-2.931,18.056-3.922,25.946-20.179c1.597,6.209,2.661,9.194,2.661,9.194
			s-27.534,31.447-50.929,31.346c-22.438-0.096-46.67-19.283-54.459-36.136C254.516,364.403,255.677,360.774,255.677,360.774z"/>
		<g>
			<path d="M313.563,385.666c-8.159,0.663-18.289,0.755-22.229,0.337c-3.855-0.409-1.035,9.255,5.396,9.996
				c6.431,0.742,15.06,0.031,15.631-0.073C318.045,394.881,323.544,384.854,313.563,385.666z"/>
			<path fill="#FFFFFF" d="M292.376,386.056l0.456,3.081c0,0,20.467,0.272,21.843-0.282c0.826-1.443,0.617-3.236,0.617-3.236
				L292.376,386.056z"/>
			<path fill="#FFFFFF" d="M313.531,395.697l-0.311-2.485c0,0-16.45-0.287-17.564-0.172c-0.334,1.348-0.555,2.59-0.555,2.59
				c2.511,0.701,6.136,0.69,9.209,0.701C307.381,396.341,312.194,396.065,313.531,395.697z"/>
		</g>
		<path fill="#BE1622" d="M364.29,381.097c0.407,21.966-33.46,36.725-60.883,37.324c-53.857,1.177-100.417-51.62-65.858-54.96
			c26.878,21.647,27.136,36.911,65.547,41.708C329.178,408.427,364.29,381.097,364.29,381.097z"/>
		<path fill="#8C1724" d="M251.806,375.145c-12.065-1.385-17.968-17.532-46.195-22.582
			C208.579,355.14,238.47,381.045,251.806,375.145z"/>
		<path fill="#BE1622" d="M360.82,375.068c0,0,8.167-3.035,11.584,0c3.468,3.08,0.415,9.054,0.415,9.054s-10.48,5.732-13.331,0
			C356.637,378.389,360.82,375.068,360.82,375.068z"/>
		<path fill="#8C1723" d="M360.294,385.786c0,0,8.055-13.7,12.409-10.258c4.355,3.442,0.971,10.318-4.535,11.669
			C362.532,388.581,360.294,385.786,360.294,385.786z"/>
		<line fill="none" x1="301.811" y1="437.34" x2="301.812" y2="437.34"/>
		<polygon fill="#875613" points="301.728,437.581 309.833,438.873 309.875,439.629 301.534,438.309 		"/>
		<polygon fill="#875613" points="302.319,436.338 309.78,437.637 309.798,438.341 301.934,437.035 		"/>
		<path fill="#878787" d="M122.557,484.08c12.863,28.684,41.369,48.643,74.496,48.643c25.402,0,48.099-11.729,63.103-30.132
			C214.17,491.63,167.804,481.524,122.557,484.08z"/>
		<path fill="#878787" d="M197.053,366.986c-45.179,0-81.803,37.102-81.803,82.868c0,12.209,2.628,23.789,7.307,34.225
			c45.247-2.556,91.614,7.55,137.599,18.511c11.682-14.328,18.701-32.702,18.701-52.736
			C278.857,404.088,242.232,366.986,197.053,366.986z"/>
		<path opacity="0.57" fill="#706F6F" d="M278.857,449.854c-38.695-18.198-51.052-23.729-79.728-25.299
			c-42.306,2.606-60.129,11.38-83.879,25.299c0-45.767,36.625-82.868,81.803-82.868S278.857,404.088,278.857,449.854z"/>
		<path fill="#9D9D9C" d="M253.47,449.854c0-33.12-26.504-59.97-59.199-59.97c-22.988,0-42.901,13.283-52.707,32.677
			c31.112,23.563,61.913,47.806,93.606,70.62C246.438,482.265,253.47,466.897,253.47,449.854z"/>
		<path opacity="0.26" fill="#FFFFFF" d="M141.564,422.562c-4.141,8.189-6.492,17.46-6.492,27.293
			c0,12.606,3.847,24.297,10.406,33.951c28.614,0.861,57.57,5.928,86.496,12.283c1.104-0.925,2.161-1.904,3.195-2.906
			C203.477,470.368,172.676,446.125,141.564,422.562z"/>
		<path fill="#9D9D9C" d="M194.271,509.824c14.326,0,27.463-5.156,37.703-13.736c-28.926-6.354-57.882-11.422-86.496-12.283
			C156.152,499.517,174.02,509.824,194.271,509.824z"/>
		<path opacity="0.35" fill="#EAEAEA" d="M146.016,385.089c0.164-0.556,8.883,9.459,14.734,15.331
			c-12.072,8.354-18.593,20.45-18.593,20.45s-11.899-10.065-15.301-13.587C128.613,403.258,139.581,389.885,146.016,385.089z"/>
		<g>
			<path opacity="0.73" fill="#EAEAEA" d="M217.166,432.155l20.352,1.169c0,0,1.351,38.921-5.804,49.469
				C232.02,465.185,217.166,432.155,217.166,432.155z"/>
		</g>
		<g>
			<g>
				<path fill="#432918" d="M364.322,187.066c2.084-0.925,4.167-1.849,6.251-2.774c0.72-0.319,0.943-1.424,0.538-2.052
					c-0.48-0.745-1.282-0.88-2.052-0.538c-2.084,0.925-4.167,1.849-6.251,2.774c-0.72,0.319-0.943,1.424-0.538,2.052
					C362.75,187.273,363.552,187.408,364.322,187.066L364.322,187.066z"/>
			</g>
		</g>
		<g>
			<g>
				<path fill="#432918" d="M367.992,192.379c0.057-0.118,0.122-0.228,0.188-0.34c0.099-0.171-0.004,0.025-0.065,0.072
					c0.047-0.035,0.085-0.101,0.125-0.144c0.098-0.106,0.209-0.197,0.314-0.297c0.138-0.131-0.235,0.159-0.073,0.056
					c0.055-0.035,0.107-0.075,0.162-0.111c0.223-0.146,0.457-0.273,0.697-0.388c0.061-0.029,0.122-0.057,0.183-0.085
					c0.04-0.018,0.257-0.112,0.053-0.025c-0.204,0.087,0.014-0.004,0.055-0.02c0.078-0.031,0.156-0.061,0.235-0.091
					c1.339-0.508,2.694-0.978,4.041-1.465c0.736-0.266,1.311-1.032,1.048-1.845c-0.234-0.724-1.055-1.334-1.845-1.048
					c-1.44,0.521-2.902,1.004-4.323,1.575c-1.346,0.541-2.727,1.272-3.385,2.643c-0.339,0.706-0.218,1.653,0.538,2.052
					C366.61,193.271,367.629,193.134,367.992,192.379L367.992,192.379z"/>
			</g>
		</g>
		<g>
			<g>
				<path fill="#432918" d="M371.213,183.688c0.009-0.044,0.022-0.087,0.039-0.129c-0.05,0.119-0.101,0.239-0.151,0.358
					c0.024-0.057,0.055-0.11,0.093-0.16c-0.078,0.101-0.156,0.202-0.235,0.304c0.038-0.049,0.082-0.093,0.131-0.131
					c-0.101,0.078-0.202,0.156-0.304,0.235c0.049-0.038,0.102-0.07,0.159-0.094c-0.119,0.05-0.239,0.101-0.358,0.151
					c0.055-0.023,0.111-0.039,0.17-0.047c0.195-0.046,0.365-0.136,0.51-0.268c0.163-0.106,0.292-0.246,0.386-0.421
					c0.11-0.172,0.169-0.358,0.178-0.558c0.045-0.199,0.036-0.399-0.027-0.598c-0.05-0.119-0.101-0.239-0.151-0.358
					c-0.133-0.225-0.313-0.405-0.538-0.538c-0.119-0.05-0.239-0.101-0.358-0.151c-0.266-0.071-0.532-0.071-0.798,0
					c-0.039,0.006-0.077,0.014-0.115,0.027c-0.155,0.051-0.306,0.117-0.452,0.19c-0.033,0.016-0.064,0.035-0.094,0.056
					c-0.133,0.094-0.267,0.189-0.385,0.302c-0.028,0.026-0.053,0.055-0.076,0.084c-0.082,0.104-0.166,0.21-0.245,0.317
					c-0.005,0.007-0.01,0.014-0.015,0.021c-0.011,0.016-0.021,0.033-0.031,0.05c-0.08,0.141-0.137,0.301-0.194,0.449
					c-0.014,0.037-0.025,0.075-0.032,0.113c-0.062,0.199-0.071,0.399-0.027,0.598c0.009,0.2,0.068,0.386,0.178,0.558
					c0.094,0.175,0.223,0.315,0.386,0.421c0.145,0.133,0.315,0.222,0.51,0.268c0.133,0.018,0.266,0.036,0.399,0.054
					c0.271-0.001,0.523-0.069,0.757-0.205c0.101-0.078,0.202-0.156,0.304-0.235C371.013,184.162,371.142,183.942,371.213,183.688
					L371.213,183.688z"/>
			</g>
		</g>
		<g>
			<g>
				<path fill="#432918" d="M370.156,197.182c1.751-1.289,3.626-2.398,5.599-3.311c0.322-0.149,0.599-0.567,0.689-0.896
					c0.099-0.359,0.054-0.837-0.151-1.156c-0.475-0.736-1.288-0.892-2.052-0.538c-1.973,0.913-3.848,2.022-5.599,3.311
					c-0.325,0.239-0.578,0.493-0.689,0.896c-0.099,0.359-0.054,0.837,0.151,1.156C368.506,197.267,369.48,197.679,370.156,197.182
					L370.156,197.182z"/>
			</g>
		</g>
	</g>
	<g>
		<g>
			<g>
				<g>
					<defs>
						<path id="SVGID_1_" d="M-731.308,1226.73c-2.724,1.427-3.74,3.841-3.74,10.506c0,0,1.38-1.336,3.427-2.079
							c1.491-0.539,2.764-1.365,3.501-1.903c2.302-1.687,2.659-3.862,2.659-7.52C-725.46,1225.735-729.214,1225.631-731.308,1226.73
							"/>
					</defs>
					<use xlink:href="#SVGID_1_"  overflow="visible" fill-rule="evenodd" clip-rule="evenodd" fill="#2B2523"/>
					<clipPath id="SVGID_00000005966801608831405630000017097956850979209625_">
						<use xlink:href="#SVGID_1_"  overflow="visible"/>
					</clipPath>
					<g clip-path="url(#SVGID_00000005966801608831405630000017097956850979209625_)">
						<defs>
							
								<rect id="SVGID_00000062168580721277073590000010121929565587021716_" x="-1306.801" y="-3434.265" width="4397.185" height="7802.716"/>
						</defs>
						<use xlink:href="#SVGID_00000062168580721277073590000010121929565587021716_"  overflow="visible" fill="#2B2523"/>
						<clipPath id="SVGID_00000002358397666067452370000002168929730824940945_">
							<use xlink:href="#SVGID_00000062168580721277073590000010121929565587021716_"  overflow="visible"/>
						</clipPath>
					</g>
				</g>
				<g>
					<defs>
						<path id="SVGID_00000049932660312689386470000012714124629962041494_" d="M-747.817,1228.305
							c-2.205,1.971-2.849,5.111-2.849,5.111l-7.298,28.672l-6.071-23.467c-0.591-2.493-1.657-5.578-3.343-7.664
							c-2.148-2.656-6.514-2.823-6.978-2.823c-0.466,0-4.832,0.167-6.978,2.823c-1.688,2.086-2.752,5.171-3.345,7.664l-6.069,23.467
							l-7.3-28.672c0,0-0.642-3.14-2.845-5.111c-3.576-3.194-8.936-2.512-8.936-2.512l13.977,53.583c0,0,4.608,0.338,6.917-0.855
							c3.031-1.567,4.47-2.775,6.305-10.066c1.635-6.498,6.205-25.591,6.631-26.951c0.21-0.672,0.479-2.276,1.642-2.276
							c1.188,0,1.434,1.604,1.64,2.276c0.419,1.362,4.997,20.453,6.631,26.951c1.835,7.291,3.279,8.499,6.309,10.066
							c2.305,1.193,6.915,0.855,6.915,0.855l13.977-53.583C-738.882,1225.793-744.243,1225.111-747.817,1228.305"/>
					</defs>
					
						<use xlink:href="#SVGID_00000049932660312689386470000012714124629962041494_"  overflow="visible" fill-rule="evenodd" clip-rule="evenodd" fill="#2B2523"/>
					<clipPath id="SVGID_00000165236728099590953840000017109308498110152354_">
						<use xlink:href="#SVGID_00000049932660312689386470000012714124629962041494_"  overflow="visible"/>
					</clipPath>
					<g clip-path="url(#SVGID_00000165236728099590953840000017109308498110152354_)">
						<defs>
							
								<rect id="SVGID_00000172422128408329844290000008103082742001233324_" x="-1306.801" y="-3434.265" width="4397.185" height="7802.716"/>
						</defs>
						<use xlink:href="#SVGID_00000172422128408329844290000008103082742001233324_"  overflow="visible" fill="#2B2523"/>
						<clipPath id="SVGID_00000179614225145806296250000006482485747734525344_">
							<use xlink:href="#SVGID_00000172422128408329844290000008103082742001233324_"  overflow="visible"/>
						</clipPath>
					</g>
				</g>
				<g>
					<defs>
						<path id="SVGID_00000065072469353457118140000004173000219676574098_" d="M-725.464,1235.319c0,0-0.882,1.346-2.892,2.457
							c-1.29,0.713-2.529,1.196-3.858,1.825c-2.228,1.056-2.833,2.231-2.833,4.024v0.6v2.77v0.073v0.624v31.645
							c0,0,3.557,0.443,5.882-0.728c2.991-1.507,3.679-2.959,3.705-9.5v-31.886l-0.004,0.002V1235.319z"/>
					</defs>
					
						<use xlink:href="#SVGID_00000065072469353457118140000004173000219676574098_"  overflow="visible" fill-rule="evenodd" clip-rule="evenodd" fill="#2B2523"/>
					<clipPath id="SVGID_00000016038164536065667730000004134766508666495165_">
						<use xlink:href="#SVGID_00000065072469353457118140000004173000219676574098_"  overflow="visible"/>
					</clipPath>
					<g clip-path="url(#SVGID_00000016038164536065667730000004134766508666495165_)">
						<defs>
							
								<rect id="SVGID_00000098193431664283473100000001330452653690294155_" x="-1306.801" y="-3434.265" width="4397.185" height="7802.716"/>
						</defs>
						<use xlink:href="#SVGID_00000098193431664283473100000001330452653690294155_"  overflow="visible" fill="#2B2523"/>
						<clipPath id="SVGID_00000131357153546843206580000015128402606570647949_">
							<use xlink:href="#SVGID_00000098193431664283473100000001330452653690294155_"  overflow="visible"/>
						</clipPath>
					</g>
				</g>
				<g>
					<defs>
						<path id="SVGID_00000084502096311510102800000016886914816223036832_" d="M-689.385,1252.669l17.613-26.698
							c0,0-7.434-1.291-11.114,2.126c-2.356,2.184-4.99,6.113-4.99,6.113l-6.482,9.52c-0.314,0.497-0.724,1.035-1.383,1.035
							c-0.657,0-1.069-0.539-1.383-1.035l-6.482-9.52c0,0-2.632-3.929-4.988-6.113c-3.68-3.417-11.114-2.126-11.114-2.126
							l17.613,26.698l-17.568,26.616c0,0,7.741,0.995,11.423-2.42c2.354-2.184,4.634-5.737,4.634-5.737l6.482-9.52
							c0.314-0.497,0.726-1.033,1.383-1.033c0.659,0,1.069,0.537,1.383,1.033l6.482,9.52c0,0,2.414,3.553,4.77,5.737
							c3.68,3.415,11.287,2.42,11.287,2.42L-689.385,1252.669z"/>
					</defs>
					
						<use xlink:href="#SVGID_00000084502096311510102800000016886914816223036832_"  overflow="visible" fill-rule="evenodd" clip-rule="evenodd" fill="#2B2523"/>
					<clipPath id="SVGID_00000083091367568559754440000013859718891709812366_">
						<use xlink:href="#SVGID_00000084502096311510102800000016886914816223036832_"  overflow="visible"/>
					</clipPath>
					<g clip-path="url(#SVGID_00000083091367568559754440000013859718891709812366_)">
						<defs>
							
								<rect id="SVGID_00000065057235222225277070000001283974338196671875_" x="-1306.801" y="-3434.265" width="4397.185" height="7802.716"/>
						</defs>
						<use xlink:href="#SVGID_00000065057235222225277070000001283974338196671875_"  overflow="visible" fill="#2B2523"/>
						<clipPath id="SVGID_00000173128884399567347380000016994229972348239252_">
							<use xlink:href="#SVGID_00000065057235222225277070000001283974338196671875_"  overflow="visible"/>
						</clipPath>
					</g>
				</g>
			</g>
		</g>
	</g>
	<g>
		<g>
			<g>
				<g>
					<defs>
						<path id="SVGID_00000040574716565988115820000003287578772667341953_" d="M-731.308,1226.73
							c-2.724,1.427-3.74,3.841-3.74,10.506c0,0,1.38-1.336,3.427-2.079c1.491-0.539,2.764-1.365,3.501-1.903
							c2.302-1.687,2.659-3.862,2.659-7.52C-725.46,1225.735-729.214,1225.631-731.308,1226.73"/>
					</defs>
					
						<use xlink:href="#SVGID_00000040574716565988115820000003287578772667341953_"  overflow="visible" fill-rule="evenodd" clip-rule="evenodd" fill="#2B2523"/>
					<clipPath id="SVGID_00000067946046504782989550000017723479995104991874_">
						<use xlink:href="#SVGID_00000040574716565988115820000003287578772667341953_"  overflow="visible"/>
					</clipPath>
					<g clip-path="url(#SVGID_00000067946046504782989550000017723479995104991874_)">
						<defs>
							
								<rect id="SVGID_00000145767323395315840530000012534000734459977878_" x="-1306.801" y="-3434.265" width="4397.185" height="7802.716"/>
						</defs>
						<use xlink:href="#SVGID_00000145767323395315840530000012534000734459977878_"  overflow="visible" fill="#2B2523"/>
						<clipPath id="SVGID_00000104692560158713308200000013957196737295610299_">
							<use xlink:href="#SVGID_00000145767323395315840530000012534000734459977878_"  overflow="visible"/>
						</clipPath>
					</g>
				</g>
				<g>
					<defs>
						<path id="SVGID_00000005963774474981594380000008074339305083759756_" d="M-747.817,1228.305
							c-2.205,1.971-2.849,5.111-2.849,5.111l-7.298,28.672l-6.071-23.467c-0.591-2.493-1.657-5.578-3.343-7.664
							c-2.148-2.656-6.514-2.823-6.978-2.823c-0.466,0-4.832,0.167-6.978,2.823c-1.688,2.086-2.752,5.171-3.345,7.664l-6.069,23.467
							l-7.3-28.672c0,0-0.642-3.14-2.845-5.111c-3.576-3.194-8.936-2.512-8.936-2.512l13.977,53.583c0,0,4.608,0.338,6.917-0.855
							c3.031-1.567,4.47-2.775,6.305-10.066c1.635-6.498,6.205-25.591,6.631-26.951c0.21-0.672,0.479-2.276,1.642-2.276
							c1.188,0,1.434,1.604,1.64,2.276c0.419,1.362,4.997,20.453,6.631,26.951c1.835,7.291,3.279,8.499,6.309,10.066
							c2.305,1.193,6.915,0.855,6.915,0.855l13.977-53.583C-738.882,1225.793-744.243,1225.111-747.817,1228.305"/>
					</defs>
					
						<use xlink:href="#SVGID_00000005963774474981594380000008074339305083759756_"  overflow="visible" fill-rule="evenodd" clip-rule="evenodd" fill="#2B2523"/>
					<clipPath id="SVGID_00000094612167559622077740000014476226279721712284_">
						<use xlink:href="#SVGID_00000005963774474981594380000008074339305083759756_"  overflow="visible"/>
					</clipPath>
					<g clip-path="url(#SVGID_00000094612167559622077740000014476226279721712284_)">
						<defs>
							
								<rect id="SVGID_00000008120660738451239630000013638582136469397897_" x="-1306.801" y="-3434.265" width="4397.185" height="7802.716"/>
						</defs>
						<use xlink:href="#SVGID_00000008120660738451239630000013638582136469397897_"  overflow="visible" fill="#2B2523"/>
						<clipPath id="SVGID_00000155838010526890233300000010494129444808153273_">
							<use xlink:href="#SVGID_00000008120660738451239630000013638582136469397897_"  overflow="visible"/>
						</clipPath>
					</g>
				</g>
				<g>
					<defs>
						<path id="SVGID_00000087395667336137418540000000623010476629829525_" d="M-725.464,1235.319c0,0-0.882,1.346-2.892,2.457
							c-1.29,0.713-2.529,1.196-3.858,1.825c-2.228,1.056-2.833,2.231-2.833,4.024v0.6v2.77v0.073v0.624v31.645
							c0,0,3.557,0.443,5.882-0.728c2.991-1.507,3.679-2.959,3.705-9.5v-31.886l-0.004,0.002V1235.319z"/>
					</defs>
					
						<use xlink:href="#SVGID_00000087395667336137418540000000623010476629829525_"  overflow="visible" fill-rule="evenodd" clip-rule="evenodd" fill="#2B2523"/>
					<clipPath id="SVGID_00000134232373247133069000000006836756081257339067_">
						<use xlink:href="#SVGID_00000087395667336137418540000000623010476629829525_"  overflow="visible"/>
					</clipPath>
					<g clip-path="url(#SVGID_00000134232373247133069000000006836756081257339067_)">
						<defs>
							
								<rect id="SVGID_00000182503668727667780670000008062536754568207249_" x="-1306.801" y="-3434.265" width="4397.185" height="7802.716"/>
						</defs>
						<use xlink:href="#SVGID_00000182503668727667780670000008062536754568207249_"  overflow="visible" fill="#2B2523"/>
						<clipPath id="SVGID_00000174566228355859878370000007376687385159664014_">
							<use xlink:href="#SVGID_00000182503668727667780670000008062536754568207249_"  overflow="visible"/>
						</clipPath>
					</g>
				</g>
				<g>
					<defs>
						<path id="SVGID_00000017514776550864332440000000579804434613468316_" d="M-689.385,1252.669l17.613-26.698
							c0,0-7.434-1.291-11.114,2.126c-2.356,2.184-4.99,6.113-4.99,6.113l-6.482,9.52c-0.314,0.497-0.724,1.035-1.383,1.035
							c-0.657,0-1.069-0.539-1.383-1.035l-6.482-9.52c0,0-2.632-3.929-4.988-6.113c-3.68-3.417-11.114-2.126-11.114-2.126
							l17.613,26.698l-17.568,26.616c0,0,7.741,0.995,11.423-2.42c2.354-2.184,4.634-5.737,4.634-5.737l6.482-9.52
							c0.314-0.497,0.726-1.033,1.383-1.033c0.659,0,1.069,0.537,1.383,1.033l6.482,9.52c0,0,2.414,3.553,4.77,5.737
							c3.68,3.415,11.287,2.42,11.287,2.42L-689.385,1252.669z"/>
					</defs>
					
						<use xlink:href="#SVGID_00000017514776550864332440000000579804434613468316_"  overflow="visible" fill-rule="evenodd" clip-rule="evenodd" fill="#2B2523"/>
					<clipPath id="SVGID_00000099637224022818126580000009714645120730068131_">
						<use xlink:href="#SVGID_00000017514776550864332440000000579804434613468316_"  overflow="visible"/>
					</clipPath>
					<g clip-path="url(#SVGID_00000099637224022818126580000009714645120730068131_)">
						<defs>
							
								<rect id="SVGID_00000003793919565197555140000016004941908529544084_" x="-1306.801" y="-3434.265" width="4397.185" height="7802.716"/>
						</defs>
						<use xlink:href="#SVGID_00000003793919565197555140000016004941908529544084_"  overflow="visible" fill="#2B2523"/>
						<clipPath id="SVGID_00000039134889683974175180000013151345758095462553_">
							<use xlink:href="#SVGID_00000003793919565197555140000016004941908529544084_"  overflow="visible"/>
						</clipPath>
					</g>
				</g>
			</g>
		</g>
	</g>
	<g>
		<g>
			<g>
				<g>
					<g>
						<defs>
							<path id="SVGID_00000039129622531509006090000010845950228574421154_" d="M817.39,710.267
								c-2.724,1.427-3.74,3.841-3.74,10.506c0,0,1.38-1.336,3.427-2.079c1.491-0.539,2.764-1.364,3.501-1.903
								c2.302-1.687,2.659-3.862,2.659-7.52C823.237,709.271,819.484,709.168,817.39,710.267"/>
						</defs>
						
							<use xlink:href="#SVGID_00000039129622531509006090000010845950228574421154_"  overflow="visible" fill-rule="evenodd" clip-rule="evenodd" fill="#2B2523"/>
						<clipPath id="SVGID_00000084514284470648960810000008306342336220044977_">
							<use xlink:href="#SVGID_00000039129622531509006090000010845950228574421154_"  overflow="visible"/>
						</clipPath>
						<g clip-path="url(#SVGID_00000084514284470648960810000008306342336220044977_)">
							<defs>
								
									<rect id="SVGID_00000178181442252974420870000011447662902820524209_" x="241.896" y="-3950.728" width="4397.185" height="7802.716"/>
							</defs>
							<use xlink:href="#SVGID_00000178181442252974420870000011447662902820524209_"  overflow="visible" fill="#2B2523"/>
							<clipPath id="SVGID_00000176029885363876497570000014754015488173965747_">
								<use xlink:href="#SVGID_00000178181442252974420870000011447662902820524209_"  overflow="visible"/>
							</clipPath>
						</g>
					</g>
					<g>
						<defs>
							<path id="SVGID_00000043449082980133490400000003712424748981006219_" d="M800.88,711.842
								c-2.205,1.971-2.849,5.111-2.849,5.111l-7.298,28.672l-6.071-23.467c-0.591-2.493-1.657-5.578-3.343-7.663
								c-2.148-2.656-6.514-2.823-6.978-2.823c-0.466,0-4.832,0.167-6.978,2.823c-1.688,2.086-2.752,5.17-3.345,7.663l-6.069,23.467
								l-7.3-28.672c0,0-0.642-3.14-2.845-5.111c-3.576-3.194-8.936-2.512-8.936-2.512l13.977,53.583c0,0,4.608,0.338,6.917-0.855
								c3.031-1.567,4.47-2.775,6.305-10.066c1.635-6.498,6.205-25.591,6.631-26.951c0.21-0.672,0.479-2.276,1.642-2.276
								c1.188,0,1.434,1.604,1.64,2.276c0.419,1.362,4.997,20.453,6.631,26.951c1.835,7.291,3.279,8.499,6.309,10.066
								c2.305,1.193,6.915,0.855,6.915,0.855l13.977-53.583C809.815,709.33,804.455,708.648,800.88,711.842"/>
						</defs>
						
							<use xlink:href="#SVGID_00000043449082980133490400000003712424748981006219_"  overflow="visible" fill-rule="evenodd" clip-rule="evenodd" fill="#2B2523"/>
						<clipPath id="SVGID_00000099638196884900692460000015722993228553098632_">
							<use xlink:href="#SVGID_00000043449082980133490400000003712424748981006219_"  overflow="visible"/>
						</clipPath>
						<g clip-path="url(#SVGID_00000099638196884900692460000015722993228553098632_)">
							<defs>
								
									<rect id="SVGID_00000085951427553109544250000014077354886798314417_" x="241.896" y="-3950.728" width="4397.185" height="7802.716"/>
							</defs>
							<use xlink:href="#SVGID_00000085951427553109544250000014077354886798314417_"  overflow="visible" fill="#2B2523"/>
							<clipPath id="SVGID_00000044175567764780897990000008529902046227983498_">
								<use xlink:href="#SVGID_00000085951427553109544250000014077354886798314417_"  overflow="visible"/>
							</clipPath>
						</g>
					</g>
					<g>
						<defs>
							<path id="SVGID_00000026854795294535371220000000806377606852015514_" d="M823.233,718.856c0,0-0.882,1.346-2.892,2.457
								c-1.291,0.713-2.529,1.196-3.858,1.825c-2.228,1.056-2.833,2.231-2.833,4.024v0.6v2.77v0.074v0.624v31.645
								c0,0,3.557,0.443,5.882-0.728c2.991-1.507,3.679-2.959,3.705-9.5V720.76l-0.004,0.002V718.856z"/>
						</defs>
						
							<use xlink:href="#SVGID_00000026854795294535371220000000806377606852015514_"  overflow="visible" fill-rule="evenodd" clip-rule="evenodd" fill="#2B2523"/>
						<clipPath id="SVGID_00000075160466071124139620000014882214516334247049_">
							<use xlink:href="#SVGID_00000026854795294535371220000000806377606852015514_"  overflow="visible"/>
						</clipPath>
						<g clip-path="url(#SVGID_00000075160466071124139620000014882214516334247049_)">
							<defs>
								
									<rect id="SVGID_00000139983534796912317860000018161364717992245406_" x="241.896" y="-3950.728" width="4397.185" height="7802.716"/>
							</defs>
							<use xlink:href="#SVGID_00000139983534796912317860000018161364717992245406_"  overflow="visible" fill="#2B2523"/>
							<clipPath id="SVGID_00000028288032084729990720000012350449679141960123_">
								<use xlink:href="#SVGID_00000139983534796912317860000018161364717992245406_"  overflow="visible"/>
							</clipPath>
						</g>
					</g>
					<g>
						<defs>
							<path id="SVGID_00000001631292753460610970000013861526170985730996_" d="M859.312,736.206l17.613-26.698
								c0,0-7.434-1.29-11.114,2.126c-2.356,2.184-4.99,6.113-4.99,6.113l-6.482,9.52c-0.314,0.497-0.724,1.035-1.383,1.035
								c-0.657,0-1.069-0.539-1.383-1.035l-6.482-9.52c0,0-2.632-3.929-4.988-6.113c-3.68-3.417-11.114-2.126-11.114-2.126
								l17.613,26.698l-17.568,26.616c0,0,7.741,0.995,11.423-2.42c2.354-2.184,4.634-5.737,4.634-5.737l6.482-9.52
								c0.314-0.497,0.726-1.034,1.383-1.034c0.659,0,1.069,0.537,1.383,1.034l6.482,9.52c0,0,2.414,3.553,4.77,5.737
								c3.68,3.415,11.287,2.42,11.287,2.42L859.312,736.206z"/>
						</defs>
						
							<use xlink:href="#SVGID_00000001631292753460610970000013861526170985730996_"  overflow="visible" fill-rule="evenodd" clip-rule="evenodd" fill="#2B2523"/>
						<clipPath id="SVGID_00000152985556133973861950000001034539116401859978_">
							<use xlink:href="#SVGID_00000001631292753460610970000013861526170985730996_"  overflow="visible"/>
						</clipPath>
						<g clip-path="url(#SVGID_00000152985556133973861950000001034539116401859978_)">
							<defs>
								
									<rect id="SVGID_00000146485014781478857610000002443916830776893063_" x="241.896" y="-3950.728" width="4397.185" height="7802.716"/>
							</defs>
							<use xlink:href="#SVGID_00000146485014781478857610000002443916830776893063_"  overflow="visible" fill="#2B2523"/>
							<clipPath id="SVGID_00000169552605205437573710000012297424358811106477_">
								<use xlink:href="#SVGID_00000146485014781478857610000002443916830776893063_"  overflow="visible"/>
							</clipPath>
						</g>
					</g>
				</g>
			</g>
		</g>
	</g>
</g>
</svg>
